<!DOCTYPE svg PUBLIC "-//W3C//DTD SVG 1.1//EN" "http://www.w3.org/Graphics/SVG/1.1/DTD/svg11.dtd">

<!-- Uploaded to: SVG Repo, www.svgrepo.com, Transformed by: SVG Repo Mixer Tools -->
<svg width="60px" height="60px" viewBox="0 0 24 24" fill="none" xmlns="http://www.w3.org/2000/svg">

<g id="SVGRepo_bgCarrier" stroke-width="0"/>

<g id="SVGRepo_tracerCarrier" stroke-linecap="round" stroke-linejoin="round"/>

<g id="SVGRepo_iconCarrier"> <path fill-rule="evenodd" clip-rule="evenodd" d="M22 5.80002L17.4 1.90002L16.1 3.40002L20.7 7.30002L22 5.80002ZM7.9 3.50002L6.6 2.00002L2 5.80002L3.3 7.30002L7.9 3.50002ZM8.14342 10.0712L9.44246 9.32121L12.0925 13.9111L16.7566 13.9896L16.6637 15.4288L11.1434 15.2674L8.14342 10.0712ZM12 4.10002C7 4.10002 3 8.10002 3 13.1C3 18.1 7 22.1 12 22.1C17 22.1 21 18.1 21 13.1C21 8.10002 17 4.10002 12 4.10002ZM5 13.1C5 17 8.1 20.1 12 20.1C15.9 20.1 19 17 19 13.1C19 9.20002 15.9 6.10002 12 6.10002C8.1 6.10002 5 9.20002 5 13.1Z" fill="#ce93d8"/> </g>

</svg>