<!DOCTYPE svg PUBLIC "-//W3C//DTD SVG 1.1//EN" "http://www.w3.org/Graphics/SVG/1.1/DTD/svg11.dtd">

<!-- Uploaded to: SVG Repo, www.svgrepo.com, Transformed by: SVG Repo Mixer Tools -->
<svg width="40px" viewBox="0 0 20.00 20.00" xmlns="http://www.w3.org/2000/svg" fill="#fcfcfc" stroke="#fcfcfc" stroke-width="0.0002">

<g id="SVGRepo_bgCarrier" stroke-width="0"/>

<g id="SVGRepo_tracerCarrier" stroke-linecap="round" stroke-linejoin="round"/>

<g id="SVGRepo_iconCarrier"> <rect x="0" fill="none" width="20" height="20"/> <g> <path d="M18 10.1c0-1-.8-1.8-1.8-1.7-.4 0-.9.2-1.2.5-1.4-.9-3-1.5-4.7-1.5l.8-3.8 2.6.6c0 .7.6 1.2 1.3 1.2.7 0 1.2-.6 1.2-1.3 0-.7-.6-1.2-1.3-1.2-.5 0-.9.3-1.1.7L11 2.9h-.2c-.1 0-.1.1-.1.2l-1 4.3C8 7.4 6.4 7.9 5 8.9c-.7-.7-1.8-.7-2.5 0s-.7 1.8 0 2.5c.1.1.3.3.5.3v.5c0 2.7 3.1 4.9 7 4.9s7-2.2 7-4.9v-.5c.6-.3 1-.9 1-1.6zM6 11.4c0-.7.6-1.2 1.2-1.2.7 0 1.2.6 1.2 1.2s-.6 1.2-1.2 1.2c-.7 0-1.2-.5-1.2-1.2zm7 3.3c-.9.6-1.9 1-3 .9-1.1 0-2.1-.3-3-.9-.1-.1-.1-.3 0-.5.1-.1.3-.1.4 0 .7.5 1.6.8 2.5.7.9.1 1.8-.2 2.5-.7.1-.1.3-.1.5 0s.2.3.1.5zm-.3-2.1c-.7 0-1.2-.6-1.2-1.2s.6-1.2 1.2-1.2c.7 0 1.2.6 1.2 1.2.1.7-.5 1.2-1.2 1.2z"/> </g> </g>

</svg>