<!DOCTYPE svg PUBLIC "-//W3C//DTD SVG 1.1//EN" "http://www.w3.org/Graphics/SVG/1.1/DTD/svg11.dtd">

<!-- Uploaded to: SVG Repo, www.svgrepo.com, Transformed by: SVG Repo Mixer Tools -->
<svg width="100px" height="40px" viewBox="-2.3 -2.3 27.60 27.60" id="meteor-icon-kit__solid-tag" fill="none" xmlns="http://www.w3.org/2000/svg" transform="rotate(-45)matrix(-1, 0, 0, 1, 0, 0)">

<g id="SVGRepo_bgCarrier" stroke-width="0"/>

<g id="SVGRepo_tracerCarrier" stroke-linecap="round" stroke-linejoin="round" stroke="#CCCCCC" stroke-width="0.13799999999999998"/>

<g id="SVGRepo_iconCarrier">

<path fill-rule="evenodd" clip-rule="evenodd" d="M0.70708 12.2929L12.7071 0.292893C12.8946 0.105357 13.149 0 13.4142 0H21C22.1045 0 23 0.89543 23 2V9.58579C23 9.851 22.8946 10.1054 22.7071 10.2929L10.7071 22.2929C10.3166 22.6834 9.6834 22.6834 9.2929 22.2929L0.70708 13.7071C0.31655 13.3166 0.31655 12.6834 0.70708 12.2929zM17 8C18.1045 8 19 7.10457 19 6C19 4.89543 18.1045 4 17 4C15.8954 4 15 4.89543 15 6C15 7.10457 15.8954 8 17 8z" fill="rgb(210, 155, 255)"/>

</g>

</svg>