<!DOCTYPE svg PUBLIC "-//W3C//DTD SVG 1.1//EN" "http://www.w3.org/Graphics/SVG/1.1/DTD/svg11.dtd">

<!-- Uploaded to: SVG Repo, www.svgrepo.com, Transformed by: SVG Repo Mixer Tools -->
<svg width="150px" height="40px" viewBox="0 0 64 64" fill="none" xmlns="http://www.w3.org/2000/svg" transform="matrix(1, 0, 0, -1, 0, 0)rotate(-45)" stroke="#e252ff" stroke-width="0.384">

<g id="SVGRepo_bgCarrier" stroke-width="0"/>

<g id="SVGRepo_tracerCarrier" stroke-linecap="round" stroke-linejoin="round"/>

<g id="SVGRepo_iconCarrier"> <path d="M54.97 33.927L29.31 8.26697C28.6125 7.56692 27.7524 7.05069 26.8065 6.76449C25.8607 6.47829 24.8586 6.43105 23.89 6.62697L13.6 8.68696C12.4383 8.9148 11.3708 9.48354 10.5337 10.3206C9.69662 11.1577 9.12788 12.2252 8.90005 13.387L6.84005 23.677C6.64611 24.6456 6.69428 25.6471 6.98037 26.5926C7.26647 27.5381 7.78159 28.3984 8.48001 29.097L34.14 54.747C34.6962 55.3049 35.357 55.7475 36.0846 56.0496C36.8122 56.3516 37.5922 56.5071 38.38 56.5071C39.1678 56.5071 39.9479 56.3516 40.6754 56.0496C41.403 55.7475 42.0638 55.3049 42.62 54.747L54.97 42.407C56.0936 41.282 56.7248 39.757 56.7248 38.167C56.7248 36.577 56.0936 35.052 54.97 33.927ZM18.24 18.017C18.8173 17.4681 19.5835 17.1621 20.38 17.1621C21.1766 17.1621 21.9427 17.4681 22.52 18.017C22.8023 18.2988 23.0255 18.6342 23.1766 19.0033C23.3277 19.3725 23.4037 19.7681 23.4001 20.167C23.4004 20.7649 23.2231 21.3495 22.8907 21.8466C22.5583 22.3437 22.0857 22.7309 21.533 22.9591C20.9802 23.1872 20.3722 23.2461 19.7859 23.1282C19.1997 23.0104 18.6616 22.721 18.24 22.297C17.9586 22.0181 17.735 21.6864 17.5823 21.3208C17.4296 20.9553 17.3506 20.5631 17.35 20.167C17.3522 19.3623 17.672 18.591 18.24 18.021V18.017Z" fill="#e875ff"/> </g>

</svg>