<!DOCTYPE svg PUBLIC "-//W3C//DTD SVG 1.1//EN" "http://www.w3.org/Graphics/SVG/1.1/DTD/svg11.dtd">
<!-- Uploaded to: SVG Repo, www.svgrepo.com, Transformed by: SVG Repo Mixer Tools -->
<svg width="64px" height="64px" viewBox="0 0 24 24" fill="none" xmlns="http://www.w3.org/2000/svg" stroke="#000000" stroke-width="0.00024000000000000003">
<g id="SVGRepo_bgCarrier" stroke-width="0"/>
<g id="SVGRepo_tracerCarrier" stroke-linecap="round" stroke-linejoin="round"/>
<g id="SVGRepo_iconCarrier"> <path d="M19.42 4.44996C19.3203 4.38118 19.2053 4.33792 19.085 4.32397C18.9647 4.31002 18.8428 4.32581 18.73 4.36996C17.5396 4.87622 16.284 5.21284 15 5.36996C14.1879 5.15275 13.4127 4.81571 12.7 4.36996C11.7794 3.80309 10.7625 3.40992 9.7 3.20996C7.99309 3.36092 6.31266 3.73061 4.7 4.30996C4.55144 4.36014 4.42234 4.45562 4.33086 4.58297C4.23938 4.71033 4.19012 4.86315 4.19 5.01996V20C4.19 20.1989 4.26902 20.3896 4.40967 20.5303C4.55032 20.6709 4.74109 20.75 4.94 20.75C5.13891 20.75 5.32968 20.6709 5.47033 20.5303C5.61098 20.3896 5.69 20.1989 5.69 20V14.15C6.9351 13.6993 8.23195 13.407 9.55 13.28C10.3964 13.4888 11.2057 13.8261 11.95 14.28C12.8201 14.8118 13.7734 15.1938 14.77 15.41H15C16.4483 15.2271 17.8648 14.8469 19.21 14.28C19.3513 14.2254 19.4729 14.1293 19.5585 14.0044C19.6442 13.8794 19.6901 13.7315 19.69 13.58V5.06996C19.6975 4.9526 19.6769 4.83514 19.63 4.72732C19.583 4.61949 19.511 4.52441 19.42 4.44996ZM18.25 13.08C17.2111 13.5101 16.1172 13.7928 15 13.92C14.1879 13.7028 13.4127 13.3657 12.7 12.92C11.7794 12.3531 10.7625 11.9599 9.7 11.76H9.5C8.21276 11.8759 6.94385 12.1445 5.72 12.56V5.55996C6.9651 5.10926 8.26195 4.81696 9.58 4.68996C10.4264 4.89885 11.2357 5.23609 11.98 5.68996C12.8501 6.22181 13.8034 6.60379 14.8 6.81996C15.9734 6.77394 17.1301 6.52702 18.22 6.08996L18.25 13.08Z" fill="#b0a1e0"/> </g>
</svg>